<svg width="256" height="256" viewBox="0 0 256 256" xmlns="http://www.w3.org/2000/svg">
  <defs>
    <linearGradient id="sun" x1="0%" y1="0%" x2="100%" y2="100%">
      <stop offset="0%" stop-color="#FAB93E"/>
      <stop offset="100%" stop-color="#D9500D"/>
    </linearGradient>
    <linearGradient id="screen" x1="0%" y1="0%" x2="100%" y2="100%">
      <stop offset="0%" stop-color="#4FC3F7"/>
      <stop offset="100%" stop-color="#0D5C9E"/>
    </linearGradient>
    <filter id="glow" x="-80%" y="-80%" width="260%" height="260%">
      <feGaussianBlur stdDeviation="16"/>
    </filter>
    <filter id="softShadow" x="-30%" y="-30%" width="160%" height="160%">
      <feDropShadow dx="0" dy="3" stdDeviation="3" flood-color="#04121F" flood-opacity="0.25"/>
    </filter>
    <filter id="sunShadow" x="-40%" y="-40%" width="180%" height="180%">
      <feDropShadow dx="0" dy="2" stdDeviation="3" flood-color="#7A3E00" flood-opacity="0.3"/>
    </filter>
    <linearGradient id="sunRay" x1="0%" y1="0%" x2="100%" y2="100%">
      <stop offset="0%" stop-color="#FFD54A"/>
      <stop offset="100%" stop-color="#FF8F00"/>
    </linearGradient>
  </defs>

  <g transform="translate(128,128) scale(1.2) translate(-128,-128)">
  <!-- Monitor, large and centered, main background element -->
  <g filter="url(#softShadow)">
    <rect x="21.33" y="53" width="213.33" height="150" rx="24" fill="url(#screen)"/>

    <!-- Brightness slider on the screen -->
    <rect x="51" y="116" width="152" height="22" rx="11" fill="#FFFFFF" fill-opacity="0.25"/>
    <rect x="51" y="116" width="53" height="22" rx="11" fill="#E3F2FD"/>
    <circle cx="104" cy="127" r="20" fill="#FFFFFF"/>
  </g>

  <!-- Sun, tucked into the bottom-right, smaller, drawn last (in front of the monitor) -->
  <g transform="translate(48,48) translate(128,128) scale(0.45) translate(-128,-128)" filter="url(#sunShadow)">
    <!-- Soft glow behind the sun -->
    <circle cx="128" cy="128" r="64" fill="url(#sun)" opacity="0.55" filter="url(#glow)"/>

    <!-- Outer ring, lighter tone, representing radiating light -->
    <path d="M 226.0 128.0 L 228.59 130.63 L 231.02 133.39 L 233.2 136.28 L 235.05 139.25 L 236.49 142.28 L 237.46 145.33 L 237.93 148.38 L 237.86 151.36 L 237.25 154.23 L 236.1 156.96 L 234.43 159.53 L 232.29 161.88 L 229.73 164.02 L 226.81 165.93 L 223.63 167.61 L 220.27 169.07 L 216.8 170.36 L 213.32 171.47 L 209.9 172.47 L 206.63 173.4 L 203.58 174.32 L 200.81 175.28 L 198.33 176.33 L 196.2 177.55 L 194.42 178.97 L 192.99 180.62 L 191.88 182.55 L 191.05 184.77 L 190.47 187.29 L 190.1 190.1 L 189.84 193.17 L 189.66 196.47 L 189.47 199.96 L 189.2 203.57 L 188.8 207.24 L 188.22 210.88 L 187.4 214.42 L 186.31 217.79 L 184.92 220.9 L 183.24 223.67 L 181.24 226.05 L 178.95 227.99 L 176.38 229.45 L 173.58 230.39 L 170.6 230.83 L 167.45 230.77 L 164.2 230.22 L 160.9 229.25 L 157.59 227.91 L 154.33 226.26 L 151.14 224.39 L 148.06 222.38 L 145.12 220.34 L 142.31 218.33 L 139.65 216.47 L 137.12 214.82 L 134.73 213.46 L 132.42 212.44 L 130.2 211.81 L 128.0 211.6 L 125.8 211.81 L 123.58 212.44 L 121.27 213.46 L 118.88 214.82 L 116.35 216.47 L 113.69 218.33 L 110.88 220.34 L 107.94 222.38 L 104.86 224.39 L 101.67 226.26 L 98.41 227.91 L 95.1 229.25 L 91.8 230.22 L 88.55 230.77 L 85.4 230.83 L 82.42 230.39 L 79.62 229.45 L 77.05 227.99 L 74.76 226.05 L 72.76 223.67 L 71.08 220.9 L 69.69 217.79 L 68.6 214.42 L 67.78 210.88 L 67.2 207.24 L 66.8 203.57 L 66.53 199.96 L 66.34 196.47 L 66.16 193.17 L 65.9 190.1 L 65.53 187.29 L 64.95 184.77 L 64.12 182.55 L 63.01 180.62 L 61.58 178.97 L 59.8 177.55 L 57.67 176.33 L 55.19 175.28 L 52.42 174.32 L 49.37 173.4 L 46.1 172.47 L 42.68 171.47 L 39.2 170.36 L 35.73 169.07 L 32.37 167.61 L 29.19 165.93 L 26.27 164.02 L 23.71 161.88 L 21.57 159.53 L 19.9 156.96 L 18.75 154.23 L 18.14 151.36 L 18.07 148.38 L 18.54 145.33 L 19.51 142.28 L 20.95 139.25 L 22.8 136.28 L 24.98 133.39 L 27.41 130.63 L 30.0 128.0 L 32.66 125.5 L 35.29 123.14 L 37.8 120.9 L 40.12 118.77 L 42.17 116.7 L 43.88 114.67 L 45.21 112.66 L 46.16 110.61 L 46.67 108.48 L 46.78 106.24 L 46.5 103.86 L 45.88 101.32 L 44.97 98.59 L 43.83 95.69 L 42.55 92.6 L 41.21 89.35 L 39.89 85.98 L 38.68 82.49 L 37.66 78.95 L 36.89 75.4 L 36.47 71.91 L 36.43 68.53 L 36.8 65.33 L 37.63 62.35 L 38.92 59.65 L 40.67 57.28 L 42.84 55.26 L 45.4 53.62 L 48.3 52.37 L 51.5 51.5 L 54.92 50.99 L 58.51 50.81 L 62.17 50.92 L 65.85 51.25 L 69.48 51.74 L 73.02 52.32 L 76.39 52.89 L 79.56 53.41 L 82.51 53.78 L 85.24 53.93 L 87.72 53.81 L 89.97 53.35 L 92.0 52.53 L 93.87 51.34 L 95.59 49.75 L 97.21 47.78 L 98.77 45.47 L 100.34 42.84 L 101.92 39.98 L 103.6 36.94 L 105.38 33.8 L 107.31 30.66 L 109.4 27.62 L 111.65 24.75 L 114.06 22.15 L 116.63 19.9 L 119.35 18.06 L 122.16 16.71 L 125.07 15.88 L 128.0 15.6 L 130.93 15.88 L 133.84 16.71 L 136.65 18.06 L 139.37 19.9 L 141.94 22.15 L 144.35 24.75 L 146.6 27.62 L 148.69 30.66 L 150.62 33.8 L 152.4 36.94 L 154.08 39.98 L 155.66 42.84 L 157.23 45.47 L 158.79 47.78 L 160.41 49.75 L 162.13 51.34 L 164.0 52.53 L 166.03 53.35 L 168.28 53.81 L 170.76 53.93 L 173.49 53.78 L 176.44 53.41 L 179.61 52.89 L 182.98 52.32 L 186.52 51.74 L 190.15 51.25 L 193.83 50.92 L 197.49 50.81 L 201.08 50.99 L 204.5 51.5 L 207.7 52.37 L 210.6 53.62 L 213.16 55.26 L 215.33 57.28 L 217.08 59.65 L 218.37 62.35 L 219.2 65.33 L 219.57 68.53 L 219.53 71.91 L 219.11 75.4 L 218.34 78.95 L 217.32 82.49 L 216.11 85.98 L 214.79 89.35 L 213.45 92.6 L 212.17 95.69 L 211.03 98.59 L 210.12 101.32 L 209.5 103.86 L 209.22 106.24 L 209.33 108.48 L 209.84 110.61 L 210.79 112.66 L 212.12 114.67 L 213.83 116.7 L 215.88 118.77 L 218.2 120.9 L 220.71 123.14 L 223.34 125.5 Z" fill="url(#sunRay)"/>

    <!-- Sun, full uncropped circle, centered -->
    <circle cx="128" cy="128" r="64" fill="url(#sun)"/>
  </g>
  </g>
</svg>
