<svg width="256" height="256" viewBox="0 0 256 256" xmlns="http://www.w3.org/2000/svg">
  <defs>
    <linearGradient id="sun" x1="0%" y1="0%" x2="100%" y2="100%">
      <stop offset="0%" stop-color="#FFCB2E"/>
      <stop offset="100%" stop-color="#E85D04"/>
    </linearGradient>
    <linearGradient id="screen" x1="0%" y1="0%" x2="100%" y2="100%">
      <stop offset="0%" stop-color="#4FC3F7"/>
      <stop offset="100%" stop-color="#0D5C9E"/>
    </linearGradient>
    <filter id="glow" x="-80%" y="-80%" width="260%" height="260%">
      <feGaussianBlur stdDeviation="16"/>
    </filter>
    <filter id="softShadow" x="-30%" y="-30%" width="160%" height="160%">
      <feDropShadow dx="0" dy="3" stdDeviation="3" flood-color="#04121F" flood-opacity="0.25"/>
    </filter>
  </defs>

  <!-- Soft glow behind the sun -->
  <circle cx="128" cy="128" r="74" fill="url(#sun)" opacity="0.55" filter="url(#glow)"/>

  <!-- Outer ring, lighter tone, representing radiating light -->
  <path d="M 226.0 128.0 L 227.28 130.6 L 228.44 133.26 L 229.45 135.98 L 230.26 138.74 L 230.82 141.53 L 231.13 144.33 L 231.15 147.12 L 230.86 149.87 L 230.27 152.55 L 229.38 155.16 L 228.2 157.68 L 226.75 160.08 L 225.05 162.37 L 223.15 164.52 L 221.08 166.56 L 218.9 168.46 L 216.62 170.28 L 214.32 171.98 L 212.01 173.62 L 209.75 175.2 L 207.57 176.76 L 205.5 178.33 L 203.55 179.92 L 201.74 181.57 L 200.08 183.32 L 198.57 185.15 L 197.2 187.1 L 195.94 189.17 L 194.78 191.37 L 193.7 193.7 L 192.65 196.13 L 191.62 198.65 L 190.56 201.24 L 189.44 203.87 L 188.23 206.49 L 186.91 209.08 L 185.45 211.59 L 183.84 213.99 L 182.06 216.23 L 180.12 218.27 L 178.0 220.09 L 175.72 221.66 L 173.28 222.95 L 170.72 223.96 L 168.05 224.68 L 165.29 225.13 L 162.46 225.3 L 159.59 225.23 L 156.71 224.94 L 153.85 224.46 L 151.01 223.84 L 148.21 223.12 L 145.49 222.35 L 142.82 221.56 L 140.22 220.82 L 137.68 220.14 L 135.21 219.58 L 132.77 219.15 L 130.38 218.89 L 128.0 218.8 L 125.62 218.89 L 123.23 219.15 L 120.79 219.58 L 118.32 220.14 L 115.78 220.82 L 113.18 221.56 L 110.51 222.35 L 107.79 223.12 L 104.99 223.84 L 102.15 224.46 L 99.29 224.94 L 96.41 225.23 L 93.54 225.3 L 90.71 225.13 L 87.95 224.68 L 85.28 223.96 L 82.72 222.95 L 80.28 221.66 L 78.0 220.09 L 75.88 218.27 L 73.94 216.23 L 72.16 213.99 L 70.55 211.59 L 69.09 209.08 L 67.77 206.49 L 66.56 203.87 L 65.44 201.24 L 64.38 198.65 L 63.35 196.13 L 62.3 193.7 L 61.22 191.37 L 60.06 189.17 L 58.8 187.1 L 57.43 185.15 L 55.92 183.32 L 54.26 181.57 L 52.45 179.92 L 50.5 178.33 L 48.43 176.76 L 46.25 175.2 L 43.99 173.62 L 41.68 171.98 L 39.38 170.28 L 37.1 168.46 L 34.92 166.56 L 32.85 164.52 L 30.95 162.37 L 29.25 160.08 L 27.8 157.68 L 26.62 155.16 L 25.73 152.55 L 25.14 149.87 L 24.85 147.12 L 24.87 144.33 L 25.18 141.53 L 25.74 138.74 L 26.55 135.98 L 27.56 133.26 L 28.72 130.6 L 30.0 128.0 L 31.35 125.47 L 32.71 123.01 L 34.05 120.6 L 35.33 118.26 L 36.5 115.95 L 37.54 113.67 L 38.43 111.4 L 39.15 109.12 L 39.69 106.8 L 40.06 104.44 L 40.27 102.01 L 40.34 99.52 L 40.3 96.94 L 40.17 94.28 L 40.0 91.55 L 39.84 88.74 L 39.72 85.9 L 39.68 83.0 L 39.77 80.09 L 40.01 77.2 L 40.46 74.35 L 41.12 71.58 L 42.02 68.91 L 43.17 66.37 L 44.59 64.0 L 46.25 61.81 L 48.16 59.81 L 50.29 58.02 L 52.61 56.45 L 55.1 55.1 L 57.73 53.95 L 60.47 52.99 L 63.26 52.2 L 66.09 51.55 L 68.91 50.99 L 71.71 50.52 L 74.44 50.06 L 77.1 49.61 L 79.65 49.11 L 82.12 48.53 L 84.48 47.84 L 86.74 47.02 L 88.91 46.04 L 91.0 44.91 L 93.04 43.6 L 95.05 42.14 L 97.03 40.55 L 99.03 38.82 L 101.04 37.01 L 103.12 35.14 L 105.25 33.26 L 107.46 31.4 L 109.77 29.63 L 112.16 27.98 L 114.63 26.5 L 117.19 25.22 L 119.83 24.18 L 122.51 23.42 L 125.25 22.96 L 128.0 22.8 L 130.75 22.96 L 133.49 23.42 L 136.17 24.18 L 138.81 25.22 L 141.37 26.5 L 143.84 27.98 L 146.23 29.63 L 148.54 31.4 L 150.75 33.26 L 152.88 35.14 L 154.96 37.01 L 156.97 38.82 L 158.97 40.55 L 160.95 42.14 L 162.96 43.6 L 165.0 44.91 L 167.09 46.04 L 169.26 47.02 L 171.52 47.84 L 173.88 48.53 L 176.35 49.11 L 178.9 49.61 L 181.56 50.06 L 184.29 50.52 L 187.09 50.99 L 189.91 51.55 L 192.74 52.2 L 195.53 52.99 L 198.27 53.95 L 200.9 55.1 L 203.39 56.45 L 205.71 58.02 L 207.84 59.81 L 209.75 61.81 L 211.41 64.0 L 212.83 66.37 L 213.98 68.91 L 214.88 71.58 L 215.54 74.35 L 215.99 77.2 L 216.23 80.09 L 216.32 83.0 L 216.28 85.9 L 216.16 88.74 L 216.0 91.55 L 215.83 94.28 L 215.7 96.94 L 215.66 99.52 L 215.73 102.01 L 215.94 104.44 L 216.31 106.8 L 216.85 109.12 L 217.57 111.4 L 218.46 113.67 L 219.5 115.95 L 220.67 118.26 L 221.95 120.6 L 223.29 123.01 L 224.65 125.47 Z" fill="#FFE9AE" opacity="0.55"/>

  <!-- Sun, full uncropped circle, centered -->
  <circle cx="128" cy="128" r="74" fill="url(#sun)"/>

  <!-- Monitor, tucked into the bottom-right, drawn last (in front of the sun) -->
  <g filter="url(#softShadow)" transform="translate(-14, -6)">
    <rect x="118" y="110" width="130" height="95" rx="13" fill="url(#screen)"/>

    <!-- Brightness slider on the screen -->
    <rect x="130" y="150" width="104" height="14" rx="7" fill="#FFFFFF" fill-opacity="0.25"/>
    <rect x="130" y="150" width="57" height="14" rx="7" fill="#FFFFFF"/>
    <circle cx="187" cy="157" r="13" fill="#FFFFFF"/>
  </g>
</svg>
